<svg version="1.1" id="Layer_1" xmlns="http://www.w3.org/2000/svg" xmlns:xlink="http://www.w3.org/1999/xlink" x="0px" y="0px"
	 width="100%" viewBox="0 0 3633 3633" enable-background="new 0 0 3633 3633" xml:space="preserve">
<path fill="#343333" opacity="1.000000" stroke="none" 
	d="
M1757.298584,2.444352 
	C1798.708496,2.000000 1839.416870,2.000000 1881.062744,2.000000 
	C1888.971069,4.137341 1896.122925,2.457979 1903.971191,3.002256 
	C1970.433594,3.338200 2035.583984,9.132882 2100.496826,19.198814 
	C2200.140869,34.650436 2297.854004,57.934963 2393.526611,89.561172 
	C2464.118896,112.896690 2533.005371,140.578690 2600.268555,172.450821 
	C2678.423584,209.484161 2753.377930,252.039810 2825.439209,299.704773 
	C2886.905029,340.361450 2945.627686,384.738403 3001.618408,432.695923 
	C3040.340332,465.862396 3077.631592,500.546387 3113.566895,536.726685 
	C3183.213379,606.848206 3246.418945,682.339355 3303.941650,762.679504 
	C3363.451172,845.793640 3415.368896,933.436279 3460.017334,1025.305298 
	C3509.216064,1126.536621 3548.298096,1231.642944 3577.826416,1340.300293 
	C3598.905029,1417.865479 3614.624268,1496.488281 3625.390381,1576.113525 
	C3630.295654,1612.393311 3633.649902,1648.788208 3634.229248,1685.458984 
	C3634.439209,1698.749390 3634.826416,1712.058716 3634.997559,1726.162720 
	C3635.059326,1733.514282 3634.866699,1740.067261 3635.554199,1747.308960 
	C3636.000000,1794.708496 3636.000000,1841.416870 3636.000000,1889.062744 
	C3633.772461,1896.342773 3635.569336,1902.894287 3634.998047,1910.120361 
	C3636.070557,2005.960083 3622.229492,2099.313477 3603.132080,2192.068604 
	C3577.577881,2316.184570 3539.046143,2436.185791 3488.053955,2552.142822 
	C3430.531738,2682.949219 3358.560303,2805.343506 3272.074951,2919.111572 
	C3235.576416,2967.123535 3196.728027,3013.161133 3155.674805,3057.416260 
	C3023.373779,3200.036133 2872.136963,3318.307129 2702.073975,3412.662842 
	C2596.843018,3471.048096 2486.909668,3518.559326 2372.284912,3555.056396 
	C2281.055420,3584.103760 2188.053223,3605.863525 2093.296875,3619.879883 
	C2041.271240,3627.575439 1989.149414,3634.215332 1936.400146,3634.099854 
	C1929.116821,3634.083984 1921.830688,3635.351074 1913.695679,3634.997559 
	C1905.729126,3635.062744 1898.564575,3634.860596 1890.701294,3635.555664 
	C1843.958252,3636.000000 1797.916382,3636.000000 1750.937256,3636.000000 
	C1743.030273,3633.862793 1735.879761,3635.541748 1728.033203,3634.998047 
	C1664.236084,3634.487061 1601.751831,3628.559814 1539.514526,3618.781738 
	C1457.783447,3605.941162 1377.339478,3587.780762 1298.049194,3564.202148 
	C1223.517822,3542.038574 1150.916382,3514.777100 1079.849609,3483.323730 
	C983.621887,3440.734131 891.997314,3389.724365 804.676453,3331.124512 
	C739.619263,3287.465576 677.646240,3239.711914 618.703918,3187.970947 
	C578.352356,3152.549561 539.410217,3115.689697 502.423218,3076.860840 
	C441.469543,3012.871826 385.223907,2944.900635 334.190460,2872.680420 
	C287.020996,2805.928223 244.387558,2736.449707 206.353317,2664.057373 
	C142.848846,2543.186523 93.898186,2416.758545 58.993561,2284.812988 
	C39.381390,2210.675781 24.725990,2135.570801 14.523474,2059.583984 
	C7.742043,2009.076904 3.408460,1958.394165 3.878208,1906.580688 
	C2.077012,1897.701294 3.521160,1889.497803 2.447599,1880.686035 
	C2.000000,1839.958252 2.000000,1799.916382 2.000000,1758.937256 
	C4.471062,1750.055664 1.859645,1741.804077 3.633666,1733.028076 
	C5.138083,1583.871704 33.379784,1439.857666 74.708931,1298.039917 
	C101.892220,1204.762451 137.534561,1114.744629 179.733475,1027.214722 
	C230.836227,921.216309 291.831604,821.299316 362.252472,727.131592 
	C402.973846,672.678345 447.050995,621.049255 493.492035,571.307678 
	C565.550537,494.127991 644.071655,424.295715 728.355835,360.914307 
	C809.195557,300.123016 894.658020,246.655884 984.543945,200.103012 
	C1117.199463,131.399399 1256.271851,80.347504 1401.554810,46.033516 
	C1471.285400,29.564047 1541.795898,17.661936 1613.020630,9.521642 
	C1653.118530,4.938835 1693.303589,4.455122 1734.302490,3.002358 
	C1742.269897,2.937196 1749.434814,3.139365 1757.298584,2.444352 
z"/>
<path fill="#FFFFFF" opacity="1.000000" stroke="none" 
	d="
M1734.543213,3.304972 
	C1711.324585,5.134317 1688.786133,6.389009 1666.285767,8.135694 
	C1628.239990,11.089149 1590.375488,15.686617 1552.615112,21.201883 
	C1511.525146,27.203444 1470.738403,34.799820 1430.154541,43.574181 
	C1380.096191,54.396961 1330.624146,67.462906 1281.713257,82.584473 
	C1220.098877,101.633484 1159.722168,124.069923 1100.485962,149.618073 
	C1008.133301,189.449158 919.819641,236.766068 835.283081,291.236267 
	C763.610291,337.417816 695.732239,388.642578 631.111328,444.194977 
	C587.420349,481.754578 545.823364,521.603088 506.083405,563.278259 
	C441.993561,630.489197 383.154877,702.066345 330.016510,778.318604 
	C287.759888,838.955872 249.224686,901.813843 214.463348,967.027588 
	C163.702316,1062.257324 121.972916,1161.301147 89.100685,1264.047852 
	C65.807434,1336.853882 47.150627,1410.840332 33.468243,1486.100464 
	C26.354630,1525.229004 20.281368,1564.473267 15.645570,1603.959839 
	C12.167596,1633.584595 9.266499,1663.243408 7.437298,1693.032227 
	C6.684015,1705.299561 5.871781,1717.549805 5.398511,1730.727783 
	C4.750618,1732.500122 4.036840,1732.921387 2.525855,1732.441650 
	C2.000000,1155.479004 2.000000,578.958069 2.000000,2.000000 
	C578.708374,2.000000 1155.416870,2.000000 1733.062744,2.000000 
	C1734.413330,2.317188 1734.826782,2.634376 1734.543213,3.304972 
z"/>
<path fill="#FFFFFF" opacity="1.000000" stroke="none" 
	d="
M4.822021,1905.756348 
	C6.278548,1925.187134 6.745798,1944.138794 8.460801,1962.976807 
	C11.374084,1994.977295 14.514331,2026.977783 18.592981,2058.845947 
	C23.053530,2093.697754 28.910280,2128.351807 35.512798,2162.887939 
	C43.618103,2205.284912 53.329365,2247.288818 64.281761,2289.022217 
	C73.307518,2323.414551 83.454613,2357.495605 94.715256,2391.200928 
	C114.938042,2451.731445 138.058655,2511.161133 164.487885,2569.285645 
	C189.420181,2624.118164 217.054779,2677.537842 247.239899,2729.661377 
	C279.263519,2784.959229 314.171143,2838.363037 351.841064,2889.965820 
	C380.452759,2929.159912 410.542694,2967.190186 442.295166,3003.890381 
	C458.810181,3022.978760 475.407806,3041.996582 492.969482,3060.148438 
	C509.399170,3077.130859 525.286865,3094.661865 542.176453,3111.170410 
	C595.932434,3163.714600 652.235352,3213.346436 711.869995,3259.207764 
	C781.332520,3312.627197 854.145142,3360.904053 930.504822,3403.849854 
	C1017.247375,3452.634277 1107.384277,3494.030518 1200.967041,3527.915283 
	C1260.030396,3549.301514 1320.022461,3567.654785 1381.003052,3582.702881 
	C1446.511108,3598.868164 1512.687622,3611.488770 1579.626831,3620.230957 
	C1618.140991,3625.260742 1656.771606,3628.866455 1695.460938,3632.000732 
	C1705.057983,3632.778076 1714.704224,3632.948975 1725.183350,3633.688232 
	C1726.435181,3634.322266 1726.831665,3634.666992 1726.614014,3635.505859 
	C1151.478882,3636.000000 576.957764,3636.000000 2.000000,3636.000000 
	C2.000000,3059.958252 2.000000,2483.916504 2.000000,1906.937256 
	C2.650391,1905.285400 3.448431,1905.027710 4.822021,1905.756348 
z"/>
<path fill="#FFFFFF" opacity="1.000000" stroke="none" 
	d="
M1913.366211,3634.495117 
	C1935.796631,3632.412598 1957.661621,3631.173340 1979.462769,3629.218750 
	C2035.682129,3624.178223 2091.607666,3616.887695 2147.149170,3606.708252 
	C2227.322021,3592.014160 2306.192383,3572.287109 2383.689941,3546.947754 
	C2449.781982,3525.338135 2514.406982,3500.119629 2577.626465,3471.165039 
	C2657.259277,3434.693359 2733.745117,3392.564697 2807.253418,3344.982178 
	C2870.704346,3303.909424 2931.347656,3259.048340 2989.132080,3210.319580 
	C3018.871094,3185.241211 3047.836670,3159.325195 3075.965576,3132.434570 
	C3090.415527,3118.621094 3104.708740,3104.659424 3118.671631,3090.377686 
	C3168.448242,3039.462646 3215.177246,2985.878906 3258.739014,2929.533447 
	C3305.988281,2868.418457 3349.182373,2804.568604 3388.316162,2737.977295 
	C3405.328857,2709.028076 3421.343018,2679.531006 3436.793701,2649.706543 
	C3468.939453,2587.652832 3497.159424,2523.865479 3521.757568,2458.491455 
	C3542.819824,2402.513672 3560.860352,2345.550781 3576.351074,2287.757080 
	C3589.415283,2239.017090 3600.115234,2189.765869 3609.203613,2140.176025 
	C3615.357178,2106.599854 3620.333008,2072.798584 3624.206543,2038.867188 
	C3627.588623,2009.238281 3630.619629,1979.580566 3632.592285,1949.800415 
	C3633.383789,1937.850342 3633.760254,1925.931396 3634.182861,1913.067627 
	C3634.560791,1911.687378 3634.801514,1911.224609 3635.521240,1911.380981 
	C3636.000000,2486.520752 3636.000000,3061.041504 3636.000000,3636.000000 
	C3062.625000,3636.000000 2489.249756,3636.000000 1914.937256,3636.000000 
	C1913.590698,3635.670654 1913.181274,3635.341553 1913.366211,3634.495117 
z"/>
<path fill="#FFFFFF" opacity="1.000000" stroke="none" 
	d="
M3634.735840,1726.527588 
	C3633.846436,1709.552612 3633.100586,1693.313843 3631.887451,1677.076782 
	C3629.786377,1648.954224 3626.984131,1620.905884 3623.558350,1592.931763 
	C3619.773682,1562.023926 3615.225098,1531.208984 3609.716797,1500.551392 
	C3597.617432,1433.208496 3582.038574,1366.699707 3562.590576,1301.075684 
	C3538.656982,1220.315674 3509.312256,1141.593018 3474.294434,1065.015015 
	C3437.450928,984.444214 3394.992920,906.939453 3346.768555,832.564697 
	C3298.394531,757.959106 3245.075439,687.157898 3186.320068,620.427979 
	C3166.089844,597.451721 3145.258057,575.057739 3124.016602,553.005371 
	C3056.958740,483.387634 2984.390137,420.066925 2907.057861,362.176819 
	C2834.248779,307.672852 2757.688721,259.046234 2677.500732,216.076828 
	C2590.032227,169.205902 2499.333252,129.931580 2405.409912,97.906860 
	C2327.313232,71.278503 2247.761230,50.200333 2166.816650,34.513424 
	C2113.683838,24.216431 2060.161621,16.219143 2006.222656,11.163647 
	C1981.105713,8.809540 1956.007446,6.484325 1930.810059,5.086192 
	C1923.188843,4.663306 1915.563965,4.274950 1907.044678,3.826174 
	C1905.690430,3.423515 1905.225342,3.188268 1905.380127,2.476510 
	C2482.520508,2.000000 3059.041260,2.000000 3636.000000,2.000000 
	C3636.000000,576.041687 3636.000000,1150.083496 3636.000000,1725.062744 
	C3635.683350,1726.414673 3635.366943,1726.829224 3634.735840,1726.527588 
z"/>
<path fill="#BAB6B6" opacity="1.000000" stroke="none" 
	d="
M2.000000,1732.926392 
	C2.703796,1731.857544 3.407594,1731.714966 4.652064,1731.595703 
	C3.374402,1739.948364 6.292894,1748.637451 2.637901,1757.437988 
	C2.000000,1749.950928 2.000000,1741.901855 2.000000,1732.926392 
z"/>
<path fill="#BEC2C2" opacity="1.000000" stroke="none" 
	d="
M5.212173,1905.460083 
	C4.531758,1906.202881 3.813403,1906.119263 2.547524,1906.017822 
	C2.000000,1897.950928 2.000000,1889.901855 2.000000,1880.926392 
	C5.325543,1881.369141 4.307716,1884.362915 4.472704,1886.840820 
	C4.867043,1892.763672 3.818788,1898.745117 5.212173,1905.460083 
z"/>
<path fill="#BBBBBB" opacity="1.000000" stroke="none" 
	d="
M1905.078735,2.000000 
	C1906.000000,2.000000 1906.134033,2.824121 1906.144775,3.241442 
	C1898.376221,4.132469 1890.598389,4.362397 1882.413818,2.752117 
	C1889.385864,2.000000 1896.771606,2.000000 1905.078735,2.000000 
z"/>
<path fill="#BBBBBB" opacity="1.000000" stroke="none" 
	d="
M1734.761841,3.795150 
	C1733.845947,3.658379 1733.866211,2.823917 1733.933105,2.411958 
	C1741.385864,2.000000 1748.771606,2.000000 1757.078735,2.000000 
	C1755.409912,5.834478 1751.526733,3.590705 1748.267700,3.897023 
	C1744.106689,4.288114 1739.877563,3.953657 1734.761841,3.795150 
z"/>
<path fill="#BABABA" opacity="1.000000" stroke="none" 
	d="
M1726.921265,3636.000000 
	C1726.030884,3635.663330 1726.061890,3635.326904 1726.065796,3634.483887 
	C1733.673462,3634.328125 1741.352173,3633.229980 1749.476685,3635.338379 
	C1742.614136,3636.000000 1735.228394,3636.000000 1726.921265,3636.000000 
z"/>
<path fill="#BABABA" opacity="1.000000" stroke="none" 
	d="
M1913.052002,3633.931641 
	C1913.942749,3634.315430 1913.924683,3634.652832 1913.953369,3635.495117 
	C1906.614136,3636.000000 1899.228394,3636.000000 1890.921265,3636.000000 
	C1893.217529,3632.440674 1897.443481,3634.403320 1901.211426,3634.057129 
	C1904.830078,3633.724854 1908.497314,3633.921143 1913.052002,3633.931641 
z"/>
<path fill="#BBBBBB" opacity="1.000000" stroke="none" 
	d="
M3634.252441,1726.715942 
	C3634.421143,1725.811401 3635.254395,1725.538086 3635.627197,1725.769043 
	C3636.000000,1732.722534 3636.000000,1739.445190 3636.000000,1747.083862 
	C3632.187256,1745.403931 3634.452393,1741.526611 3634.094727,1738.262573 
	C3633.710449,1734.756836 3634.056641,1731.171265 3634.252441,1726.715942 
z"/>
<path fill="#BBBBBB" opacity="1.000000" stroke="none" 
	d="
M3636.000000,1911.083862 
	C3636.000000,1912.000000 3635.175293,1912.245972 3634.747559,1912.198120 
	C3633.930664,1905.029419 3633.588135,1897.908936 3635.244629,1890.399170 
	C3636.000000,1896.722534 3636.000000,1903.445190 3636.000000,1911.083862 
z"/>
<path fill="#ED1B24" opacity="1.000000" stroke="none" 
	d="
M1649.531250,211.677322 
	C1669.006470,209.866745 1687.545166,207.659653 1706.149292,206.493820 
	C1754.380859,203.471375 1802.663452,201.606216 1851.005005,202.743988 
	C1906.650391,204.053696 1962.163696,207.596313 2017.408203,214.435928 
	C2191.751953,236.020874 2358.372559,284.237518 2516.880859,360.139984 
	C2666.506104,431.788940 2801.856445,524.345520 2923.155762,637.526917 
	C3009.275391,717.882751 3085.652100,806.598083 3152.475342,903.560669 
	C3161.412354,916.528503 3161.635254,914.488281 3148.375000,922.144958 
	C2907.419922,1061.280396 2666.461914,1200.411499 2425.482666,1339.505127 
	C2415.031006,1345.537842 2416.708252,1347.062012 2407.962402,1336.436157 
	C2339.417725,1253.156738 2256.927979,1187.236084 2160.618408,1138.806519 
	C2089.855713,1103.223145 2015.203125,1079.526978 1936.834839,1067.537964 
	C1892.253906,1060.717773 1847.427368,1057.317749 1802.395874,1058.635742 
	C1650.910645,1063.069092 1511.711304,1106.712158 1387.492188,1193.883057 
	C1221.020264,1310.704712 1116.781494,1469.447021 1074.531982,1668.487549 
	C1061.319214,1730.733643 1057.365112,1793.894897 1060.477051,1857.370361 
	C1064.353760,1936.447632 1080.227783,2013.173340 1108.163574,2087.334229 
	C1112.411865,2098.612305 1114.198242,2096.631104 1102.735474,2103.257568 
	C1015.324097,2153.789551 927.856384,2204.223633 840.415649,2254.704834 
	C687.177917,2343.171875 533.952637,2431.660889 380.704468,2520.110107 
	C364.957947,2529.198486 367.619965,2529.511230 360.348053,2514.267578 
	C301.085052,2390.037109 258.508514,2260.282715 232.536789,2125.134521 
	C221.847534,2069.511230 214.400726,2013.426392 209.486450,1956.958740 
	C203.871994,1892.445801 202.188660,1827.832764 204.512909,1763.211548 
	C212.059357,1553.396362 257.839325,1352.265991 343.597656,1160.430664 
	C412.978363,1005.230835 504.605011,864.482483 618.374634,738.190674 
	C752.789246,588.981506 909.431641,468.694183 1088.395996,377.483734 
	C1221.631348,309.579529 1361.707153,261.536407 1508.365845,232.640945 
	C1554.778076,223.496552 1601.525513,216.391708 1649.531250,211.677322 
z"/>
<path fill="#FFFFFF" opacity="1.000000" stroke="none" 
	d="
M3436.331543,1828.000977 
	C3436.109131,1845.318604 3436.433838,1861.665283 3435.563477,1877.948120 
	C3432.838379,1928.935059 3429.222900,1979.837891 3422.472412,2030.510132 
	C3413.569580,2097.339600 3400.856934,2163.384521 3383.839600,2228.600342 
	C3361.400146,2314.595459 3331.864258,2398.108887 3295.503662,2479.200439 
	C3268.122314,2540.266602 3237.074463,2599.416260 3202.273438,2656.585449 
	C3169.034180,2711.188232 3132.751221,2763.673096 3093.371582,2814.046875 
	C3064.897461,2850.470215 3034.929443,2885.615234 3003.474609,2919.449707 
	C2975.374268,2949.676270 2946.008301,2978.669189 2915.652100,3006.684082 
	C2873.089355,3045.964355 2828.651611,3082.942871 2782.132080,3117.398193 
	C2720.856689,3162.781982 2656.737061,3203.716553 2589.686279,3240.109619 
	C2504.183350,3286.518311 2415.217773,3324.839111 2322.836182,3355.185791 
	C2264.722168,3374.275391 2205.655762,3389.897949 2145.681641,3402.082764 
	C2103.046387,3410.744873 2060.157959,3417.834961 2016.996094,3423.147705 
	C1992.300781,3426.187256 1967.510864,3428.444580 1942.669312,3430.237549 
	C1914.152954,3432.295410 1885.628052,3433.389648 1857.066040,3434.415283 
	C1839.426758,3435.048828 1821.786865,3435.600342 1804.194946,3435.113525 
	C1769.017090,3434.140137 1733.853760,3432.905518 1698.714111,3430.335693 
	C1637.036621,3425.825439 1575.917725,3417.598389 1515.195190,3406.118164 
	C1457.029785,3395.121338 1399.719849,3380.700684 1343.147705,3363.285400 
	C1277.962769,3343.218506 1214.354980,3318.998535 1152.275391,3290.790283 
	C1079.815308,3257.864990 1010.228882,3219.684570 943.384399,3176.451904 
	C878.219116,3134.304932 816.490051,3087.632324 757.985413,3036.689697 
	C739.184631,3020.318848 720.793701,3003.485107 702.830811,2986.169434 
	C690.846069,2974.616455 678.721741,2963.202637 667.144775,2951.247559 
	C621.557556,2904.172363 578.224609,2855.127197 538.377563,2803.056641 
	C519.989685,2779.028076 502.120148,2754.625244 485.197845,2729.539795 
	C480.672760,2722.832031 480.770935,2722.686035 487.880463,2718.582520 
	C548.904297,2683.360596 609.953064,2648.181885 670.971191,2612.949951 
	C763.074890,2559.769775 855.147705,2506.536621 947.257202,2453.366455 
	C1008.566101,2417.976562 1069.925171,2382.673584 1131.243652,2347.300049 
	C1160.322632,2330.525146 1189.351929,2313.663818 1218.420410,2296.870361 
	C1224.883789,2293.136475 1224.998901,2293.125977 1229.649414,2298.916748 
	C1248.827881,2322.796143 1269.420044,2345.410156 1291.522583,2366.580566 
	C1337.095581,2410.231934 1387.144165,2447.981201 1441.893188,2479.460449 
	C1502.508911,2514.312988 1566.810425,2540.088379 1634.554932,2557.116699 
	C1671.624634,2566.434570 1709.255981,2572.721680 1747.386841,2576.290283 
	C1772.239746,2578.616943 1797.123901,2580.096680 1822.008545,2579.929932 
	C1911.501953,2579.329834 1998.550659,2564.446777 2082.653076,2533.376709 
	C2172.224609,2500.286377 2252.826416,2452.232666 2324.341064,2388.891602 
	C2384.575928,2335.541016 2435.229980,2274.347900 2476.087158,2205.026123 
	C2516.403564,2136.622070 2545.332520,2063.719727 2562.632812,1986.224854 
	C2570.444336,1951.234009 2575.833252,1915.901978 2578.548584,1880.107056 
	C2579.631104,1865.836670 2579.261719,1851.516479 2580.570068,1837.351074 
	C2582.754883,1813.701050 2580.541504,1790.188599 2579.338867,1766.727783 
	C2577.711914,1734.984131 2573.256104,1703.441162 2567.065430,1672.185059 
	C2558.535889,1629.119263 2546.701904,1587.015137 2530.770752,1546.110718 
	C2528.702148,1540.799316 2530.893311,1539.131226 2534.765381,1536.918213 
	C2558.427490,1523.393677 2581.995605,1509.705078 2605.599365,1496.078491 
	C2696.265381,1443.736816 2786.932617,1391.396606 2877.600098,1339.057739 
	C2946.395752,1299.344482 3015.204590,1259.653931 3083.985840,1219.915894 
	C3142.981201,1185.831421 3201.945557,1151.693237 3260.925537,1117.582397 
	C3263.227295,1116.251221 3265.687500,1115.148071 3267.834961,1113.605835 
	C3271.962891,1110.641113 3274.167969,1111.974487 3276.109863,1116.283203 
	C3282.527100,1130.520264 3289.353516,1144.572998 3295.744629,1158.821411 
	C3317.374756,1207.046387 3336.640137,1256.223389 3353.331299,1306.356567 
	C3375.164551,1371.935181 3393.001709,1438.613281 3406.088379,1506.514771 
	C3414.683105,1551.109253 3421.776123,1595.925781 3426.459961,1641.127197 
	C3428.851807,1664.208984 3430.809814,1687.301880 3432.493164,1710.446777 
	C3435.316406,1749.265259 3436.417480,1788.104736 3436.331543,1828.000977 
z"/>
<path fill="#FFFFFF" opacity="1.000000" stroke="none" 
	d="
M1275.668213,1791.823486 
	C1278.005859,1739.460449 1287.930054,1689.502930 1304.689209,1640.916748 
	C1327.388550,1575.110107 1361.626953,1515.848755 1407.080933,1463.167847 
	C1468.739990,1391.705566 1544.009888,1339.563721 1632.459351,1306.803955 
	C1680.005371,1289.193848 1729.197388,1278.652466 1779.920776,1275.114868 
	C1803.522217,1273.468750 1827.088623,1272.699585 1850.642578,1274.194092 
	C1919.953491,1278.592041 1986.394897,1294.631836 2049.479248,1324.103394 
	C2096.186523,1345.924072 2139.079834,1373.563354 2177.846191,1407.515381 
	C2226.571289,1450.189453 2266.884033,1499.686157 2298.170898,1556.502319 
	C2320.581299,1597.199219 2337.364746,1640.088867 2348.861572,1685.043213 
	C2355.360596,1710.455933 2359.950928,1736.226074 2362.413574,1762.389282 
	C2364.312744,1782.561523 2365.967773,1802.727051 2365.645752,1822.997070 
	C2364.824707,1874.696289 2357.520508,1925.396484 2342.644287,1975.006958 
	C2319.251953,2053.017822 2280.106445,2122.216064 2226.037598,2182.886230 
	C2185.889160,2227.936279 2139.142090,2265.021240 2086.484375,2294.575684 
	C2030.303223,2326.107422 1970.394409,2347.091797 1906.803955,2357.279053 
	C1869.635254,2363.233643 1832.231201,2365.218750 1794.538452,2363.475098 
	C1741.369385,2361.015869 1689.764771,2350.968506 1639.624146,2333.427734 
	C1578.448975,2312.027100 1522.909180,2280.459717 1473.023926,2239.101562 
	C1419.956665,2195.105469 1376.374634,2143.064453 1342.940063,2082.771729 
	C1314.217163,2030.975098 1294.374756,1975.869507 1283.877075,1917.505981 
	C1279.174927,1891.363525 1276.573853,1865.040527 1275.286255,1838.459351 
	C1274.544189,1823.139038 1275.128296,1808.003540 1275.668213,1791.823486 
z"/>
</svg>